<svg t="1631617232624" class="icon" viewBox="0 0 1024 1024" version="1.1" xmlns="http://www.w3.org/2000/svg" p-id="3552" width="32" height="32"><path d="M284.300863 797.800857c9.099966 0 18.299931-3.499987 25.299904-10.49996 13.999947-13.999947 13.999947-36.599861 0-50.499809l-188.999284-189.099283h544.797936c19.699925 0 35.699865-15.999939 35.699864-35.699865s-15.999939-35.699865-35.699864-35.699865H120.501483l189.099284-189.099283c13.999947-13.899947 13.999947-36.599861 0-50.499809-13.999947-13.999947-36.599861-13.999947-50.499809 0L34.20181 461.602131c-27.799895 27.899894-27.699895 73.199723 0.1 100.999617L259.000959 787.300897c6.999973 6.999973 16.199939 10.49996 25.299904 10.49996z" fill="#27D0D8" p-id="3553"></path><path d="M958.798307 51.803684C925.398434 18.40381 880.998602 0.00388 833.698781 0.00388h-524.998011c-47.099822-0.299999-91.599653 16.799936-125.499524 49.499812-33.799872 32.699876-52.8998 76.699709-53.699797 123.799531v5.799978l71.39973 0.999997 0.199999-4.999981c0.1-1.499994 0-2.899989-0.1-4.299984 1.299995-26.599899 12.599952-51.299806 31.79988-69.899735C253.000981 81.403572 280.000879 71.003611 308.100773 71.403609h525.598008c28.199893 0 54.699793 10.999958 74.599717 30.899883s30.899883 46.399824 30.899883 74.599718v668.397467c0 59.099776-48.099818 107.199594-107.199593 107.199594H308.100773c-61.199768 0-106.899595-67.699743-106.899595-128.199514 0-19.699925-15.999939-35.699865-35.699865-35.699865s-35.699865 15.999939-35.699865 35.699865c0 94.399642 73.299722 199.699243 178.399324 199.699243H831.998788c98.499627 0 178.599323-80.099696 178.599323-178.599323V177.003209c0-47.299821-18.39993-91.699653-51.799804-125.199525z" fill="#27D0D8" p-id="3554"></path></svg>